<svg xmlns="http://www.w3.org/2000/svg" viewBox="0 0 128 128" role="img" aria-labelledby="title desc">
  <title id="title">Shopping cart</title>
  <desc id="desc">Orange basket shopping cart with gray wheels</desc>
  <path fill="#a6a6a6" d="M117 20H31a4 4 0 0 0-3.9 3.2l-11 55.1A9 9 0 0 0 25 89h67.4a4 4 0 0 0 0-8H25a1 1 0 0 1-1-1.2l10.3-51.9H117a4 4 0 1 0 0-8Z"/>
  <path fill="#f7a000" d="M32.8 21.6a4 4 0 0 0-3.9 3.2l-7.6 38.1a6 6 0 0 0 5.9 7.1h82a6 6 0 0 0 5.9-4.8l5.9-29.4a6 6 0 0 0-5.9-7.2H43.1L45 32.8a4 4 0 0 0-7.8-1.6l-1.6 7.9h-3.8l2-10.3a4 4 0 0 0-3.9-4.8Z"/>
  <path fill="#e28a00" d="M39.7 38.7h74.6l-5.2 26h-76Z"/>
  <path fill="#7f8c96" d="M108 101a16 16 0 1 1-32 0 16 16 0 0 1 32 0Zm-70 0a16 16 0 1 1-32 0 16 16 0 0 1 32 0Z"/>
  <path fill="#e6e6e6" d="M98 101a6 6 0 1 1-12 0 6 6 0 0 1 12 0Zm-70 0a6 6 0 1 1-12 0 6 6 0 0 1 12 0Z"/>
  <path fill="#7f8c96" d="M112 88H20a4 4 0 0 0 0 8h92a4 4 0 0 0 0-8Z"/>
</svg>
